<svg viewBox="0 0 1024 1024" xmlns="http://www.w3.org/2000/svg"><g clip-rule="evenodd" fill-rule="evenodd" fill="#fff"><path d="M998.805 732.723c-13.82 22.922-26.303 46.783-41.688 68.604-76.772 108.89-181.907 172.541-313.433 192.371-66.178 9.979-132.508 7.857-198.1-4.579-69.746-13.228-132.964-43.214-191.343-82.808-119.55-81.072-201.986-189.695-238.558-330.48-24.386-93.873-22.072-186.853 19.285-276.196 10.78-23.292 25.342-45.11 40.216-66.159 17.196-24.337 36.655-47.075 56.563-69.713-3.375 7.893-6.939 15.714-10.098 23.694-37.179 93.888-37.583 189.26-9.019 284.936 38.868 130.189 119.156 230.037 230.596 305.628 99.967 67.806 210.821 100.244 331.678 96.827 91.813-2.595 178.04-24.681 252.769-80.38 24.921-18.575 46.77-41.27 70.024-62.078.367.112.739.222 1.108.333z"/><path d="M1024 474.521c-7.513 14.825-14.04 29.874-22.392 43.834-53.706 89.768-133.248 140.99-236.166 157.154-52.851 8.303-105.735 6.77-157.824-3.423-37.721-7.381-72.919-23.65-106.017-43.457-95.812-57.337-164.044-136.989-192.522-246.309-24.27-93.162-11.342-180.839 46.995-259.745 11.403-15.424 22.224-31.278 33.336-46.917.379-.535.992-.902 2.345-2.1-.418 2.044-.443 3.358-.947 4.451-42.287 91.75-38.86 184.009 4.677 272.985 68.189 139.356 181.558 219.78 335.73 239.274 86.489 10.936 167.009-8.228 236.772-62.518 19.973-15.542 36.951-34.924 56.013-53.229z"/><path d="M605.3 24c-4.276 17.406-10.085 34.323-12.4 51.707-7.479 56.16 9.264 106.64 40.688 152.367 47.184 68.662 113.273 106.404 195.819 116.046 26.303 3.071 52.43 2.894 78.281-3.25 29.313-6.968 40.998-14.011 82.194-48.85-2.51 4.832-3.814 7.739-5.46 10.44-38.795 63.714-95.444 95.492-170.116 98.527-127.829 5.199-233.313-91.405-256.971-190.864-13.99-58.816-4.693-113.471 31.083-162.94C594.042 39.412 599.713 31.672 605.3 24z"/></g></svg>